<svg width="328" height="36" viewBox="0 0 328 36" fill="none" xmlns="http://www.w3.org/2000/svg">
<path d="M16.1562 8.69602C16.0199 7.48579 15.4574 6.54829 14.4688 5.88352C13.4801 5.21023 12.2358 4.87358 10.7358 4.87358C9.66193 4.87358 8.73295 5.04403 7.94886 5.38494C7.16477 5.71733 6.5554 6.17756 6.12074 6.76562C5.6946 7.34517 5.48153 8.00568 5.48153 8.74716C5.48153 9.36932 5.62642 9.90625 5.91619 10.358C6.21449 10.8097 6.60227 11.1889 7.07955 11.4957C7.56534 11.794 8.08523 12.0455 8.6392 12.25C9.19318 12.446 9.72585 12.608 10.2372 12.7358L12.794 13.4006C13.6293 13.6051 14.4858 13.8821 15.3636 14.2315C16.2415 14.581 17.0554 15.0412 17.8054 15.6122C18.5554 16.1832 19.1605 16.8906 19.6207 17.7344C20.0895 18.5781 20.3239 19.5881 20.3239 20.7642C20.3239 22.2472 19.9403 23.5639 19.1733 24.7145C18.4148 25.8651 17.3111 26.7727 15.8622 27.4375C14.4219 28.1023 12.679 28.4347 10.6335 28.4347C8.6733 28.4347 6.97727 28.1236 5.54545 27.5014C4.11364 26.8793 2.9929 25.9972 2.18324 24.8551C1.37358 23.7045 0.926136 22.3409 0.840909 20.7642H4.80398C4.88068 21.7102 5.1875 22.4986 5.72443 23.1293C6.26989 23.7514 6.96449 24.2159 7.80824 24.5227C8.66051 24.821 9.59375 24.9702 10.608 24.9702C11.7244 24.9702 12.7173 24.7955 13.5866 24.446C14.4645 24.0881 15.1548 23.5937 15.6577 22.9631C16.1605 22.3239 16.4119 21.5781 16.4119 20.7259C16.4119 19.9503 16.1903 19.3153 15.7472 18.821C15.3125 18.3267 14.7202 17.9176 13.9702 17.5938C13.2287 17.2699 12.3892 16.9844 11.4517 16.7372L8.35795 15.8935C6.26136 15.3224 4.59943 14.483 3.37216 13.375C2.15341 12.267 1.54403 10.8011 1.54403 8.97727C1.54403 7.46875 1.95313 6.15199 2.77131 5.02699C3.58949 3.90199 4.69744 3.02841 6.09517 2.40625C7.4929 1.77557 9.0696 1.46023 10.8253 1.46023C12.598 1.46023 14.1619 1.77131 15.517 2.39347C16.8807 3.01563 17.9545 3.87216 18.7386 4.96307C19.5227 6.04545 19.9318 7.28977 19.9659 8.69602H16.1562ZM33.2006 28.3963C31.266 28.3963 29.5998 27.983 28.2021 27.1562C26.8129 26.321 25.739 25.1491 24.9805 23.6406C24.2305 22.1236 23.8555 20.3466 23.8555 18.3097C23.8555 16.2983 24.2305 14.5256 24.9805 12.9915C25.739 11.4574 26.7958 10.2599 28.1509 9.39915C29.5146 8.53835 31.1083 8.10795 32.9322 8.10795C34.0401 8.10795 35.114 8.29119 36.1538 8.65767C37.1935 9.02415 38.1268 9.59943 38.9535 10.3835C39.7802 11.1676 40.4322 12.1861 40.9094 13.4389C41.3867 14.6832 41.6254 16.196 41.6254 17.9773V19.3324H26.016V16.4688H37.8796C37.8796 15.4631 37.6751 14.5724 37.266 13.7969C36.8569 13.0128 36.2816 12.3949 35.5401 11.9432C34.8072 11.4915 33.9464 11.2656 32.9577 11.2656C31.8839 11.2656 30.9464 11.5298 30.1452 12.0582C29.3526 12.5781 28.739 13.2599 28.3043 14.1037C27.8782 14.9389 27.6651 15.8466 27.6651 16.8267V19.0639C27.6651 20.3764 27.8952 21.4929 28.3555 22.4134C28.8242 23.3338 29.4762 24.0369 30.3114 24.5227C31.1467 25 32.1225 25.2386 33.239 25.2386C33.9634 25.2386 34.6239 25.1364 35.2205 24.9318C35.8171 24.7187 36.3327 24.4034 36.7674 23.9858C37.2021 23.5682 37.5344 23.0526 37.7646 22.4389L41.3825 23.0909C41.0927 24.1562 40.5728 25.0895 39.8228 25.8906C39.0813 26.6832 38.1481 27.3011 37.0231 27.7443C35.9066 28.179 34.6325 28.3963 33.2006 28.3963ZM49.6889 16.3409V28H45.8665V8.36364H49.5355V11.5597H49.7784C50.2301 10.5199 50.9375 9.68466 51.9006 9.05398C52.8722 8.4233 54.0952 8.10795 55.5696 8.10795C56.9077 8.10795 58.0795 8.3892 59.0852 8.9517C60.0909 9.50568 60.8707 10.3324 61.4247 11.4318C61.9787 12.5312 62.2557 13.8906 62.2557 15.5099V28H58.4332V15.9702C58.4332 14.5469 58.0625 13.4347 57.321 12.6335C56.5795 11.8239 55.5611 11.419 54.2656 11.419C53.3793 11.419 52.5909 11.6108 51.9006 11.9943C51.2188 12.3778 50.6776 12.9403 50.277 13.6818C49.8849 14.4148 49.6889 15.3011 49.6889 16.3409ZM76.5483 8.36364V11.4318H65.8224V8.36364H76.5483ZM68.6989 3.65909H72.5213V22.2344C72.5213 22.9759 72.6321 23.5341 72.8537 23.9091C73.0753 24.2756 73.3608 24.527 73.7102 24.6634C74.0682 24.7912 74.456 24.8551 74.8736 24.8551C75.1804 24.8551 75.4489 24.8338 75.679 24.7912C75.9091 24.7486 76.0881 24.7145 76.2159 24.6889L76.9062 27.8466C76.6847 27.9318 76.3693 28.017 75.9602 28.1023C75.5511 28.196 75.0398 28.2472 74.4261 28.2557C73.4205 28.2727 72.483 28.0938 71.6136 27.7188C70.7443 27.3438 70.0412 26.7642 69.5043 25.9801C68.9673 25.196 68.6989 24.2116 68.6989 23.027V3.65909ZM80.7766 28V8.36364H84.5991V28H80.7766ZM82.707 5.33381C82.0423 5.33381 81.4712 5.11221 80.994 4.66903C80.5252 4.21733 80.2908 3.6804 80.2908 3.05824C80.2908 2.42756 80.5252 1.89062 80.994 1.44744C81.4712 0.995738 82.0423 0.769886 82.707 0.769886C83.3718 0.769886 83.9386 0.995738 84.4073 1.44744C84.8846 1.89062 85.1232 2.42756 85.1232 3.05824C85.1232 3.6804 84.8846 4.21733 84.4073 4.66903C83.9386 5.11221 83.3718 5.33381 82.707 5.33381ZM89.7415 28V8.36364H93.4105V11.5597H93.6534C94.0625 10.4773 94.7315 9.63352 95.6605 9.02841C96.5895 8.41477 97.7017 8.10795 98.9972 8.10795C100.31 8.10795 101.409 8.41477 102.295 9.02841C103.19 9.64204 103.851 10.4858 104.277 11.5597H104.482C104.95 10.5114 105.696 9.67614 106.719 9.05398C107.741 8.4233 108.96 8.10795 110.375 8.10795C112.156 8.10795 113.609 8.66619 114.734 9.78267C115.868 10.8991 116.435 12.5824 116.435 14.8324V28H112.612V15.1903C112.612 13.8608 112.25 12.8977 111.526 12.3011C110.801 11.7045 109.936 11.4062 108.93 11.4062C107.686 11.4062 106.719 11.7898 106.028 12.5568C105.338 13.3153 104.993 14.2912 104.993 15.4844V28H101.183V14.9474C101.183 13.8821 100.851 13.0256 100.186 12.3778C99.5213 11.7301 98.6563 11.4062 97.5909 11.4062C96.8665 11.4062 96.1974 11.598 95.5838 11.9815C94.9787 12.3565 94.4886 12.8807 94.1136 13.554C93.7472 14.2273 93.5639 15.0071 93.5639 15.8935V28H89.7415ZM130.021 28.3963C128.086 28.3963 126.42 27.983 125.022 27.1562C123.633 26.321 122.559 25.1491 121.801 23.6406C121.051 22.1236 120.676 20.3466 120.676 18.3097C120.676 16.2983 121.051 14.5256 121.801 12.9915C122.559 11.4574 123.616 10.2599 124.971 9.39915C126.335 8.53835 127.929 8.10795 129.752 8.10795C130.86 8.10795 131.934 8.29119 132.974 8.65767C134.014 9.02415 134.947 9.59943 135.774 10.3835C136.6 11.1676 137.252 12.1861 137.73 13.4389C138.207 14.6832 138.446 16.196 138.446 17.9773V19.3324H122.836V16.4688H134.7C134.7 15.4631 134.495 14.5724 134.086 13.7969C133.677 13.0128 133.102 12.3949 132.36 11.9432C131.627 11.4915 130.767 11.2656 129.778 11.2656C128.704 11.2656 127.767 11.5298 126.966 12.0582C126.173 12.5781 125.559 13.2599 125.125 14.1037C124.699 14.9389 124.485 15.8466 124.485 16.8267V19.0639C124.485 20.3764 124.716 21.4929 125.176 22.4134C125.645 23.3338 126.297 24.0369 127.132 24.5227C127.967 25 128.943 25.2386 130.059 25.2386C130.784 25.2386 131.444 25.1364 132.041 24.9318C132.637 24.7187 133.153 24.4034 133.588 23.9858C134.022 23.5682 134.355 23.0526 134.585 22.4389L138.203 23.0909C137.913 24.1562 137.393 25.0895 136.643 25.8906C135.902 26.6832 134.968 27.3011 133.843 27.7443C132.727 28.179 131.453 28.3963 130.021 28.3963ZM146.509 16.3409V28H142.687V8.36364H146.356V11.5597H146.599C147.05 10.5199 147.758 9.68466 148.721 9.05398C149.692 8.4233 150.915 8.10795 152.39 8.10795C153.728 8.10795 154.9 8.3892 155.906 8.9517C156.911 9.50568 157.691 10.3324 158.245 11.4318C158.799 12.5312 159.076 13.8906 159.076 15.5099V28H155.254V15.9702C155.254 14.5469 154.883 13.4347 154.141 12.6335C153.4 11.8239 152.381 11.419 151.086 11.419C150.2 11.419 149.411 11.6108 148.721 11.9943C148.039 12.3778 147.498 12.9403 147.097 13.6818C146.705 14.4148 146.509 15.3011 146.509 16.3409ZM173.369 8.36364V11.4318H162.643V8.36364H173.369ZM165.519 3.65909H169.342V22.2344C169.342 22.9759 169.452 23.5341 169.674 23.9091C169.896 24.2756 170.181 24.527 170.531 24.6634C170.888 24.7912 171.276 24.8551 171.694 24.8551C172.001 24.8551 172.269 24.8338 172.499 24.7912C172.729 24.7486 172.908 24.7145 173.036 24.6889L173.727 27.8466C173.505 27.9318 173.19 28.017 172.781 28.1023C172.371 28.196 171.86 28.2472 171.246 28.2557C170.241 28.2727 169.303 28.0938 168.434 27.7188C167.565 27.3438 166.862 26.7642 166.325 25.9801C165.788 25.196 165.519 24.2116 165.519 23.027V3.65909ZM189.643 28H185.45L194.871 1.81818H199.435L208.857 28H204.664L197.262 6.57386H197.058L189.643 28ZM190.346 17.7472H203.948V21.071H190.346V17.7472ZM216.154 16.3409V28H212.331V8.36364H216V11.5597H216.243C216.695 10.5199 217.402 9.68466 218.365 9.05398C219.337 8.4233 220.56 8.10795 222.034 8.10795C223.373 8.10795 224.544 8.3892 225.55 8.9517C226.556 9.50568 227.336 10.3324 227.89 11.4318C228.444 12.5312 228.721 13.8906 228.721 15.5099V28H224.898V15.9702C224.898 14.5469 224.527 13.4347 223.786 12.6335C223.044 11.8239 222.026 11.419 220.73 11.419C219.844 11.419 219.056 11.6108 218.365 11.9943C217.684 12.3778 217.142 12.9403 216.742 13.6818C216.35 14.4148 216.154 15.3011 216.154 16.3409ZM239.561 28.4347C238.317 28.4347 237.192 28.2045 236.186 27.7443C235.181 27.2756 234.384 26.598 233.796 25.7116C233.216 24.8253 232.926 23.7386 232.926 22.4517C232.926 21.3437 233.14 20.4318 233.566 19.7159C233.992 19 234.567 18.4332 235.292 18.0156C236.016 17.598 236.826 17.2827 237.721 17.0696C238.615 16.8565 239.527 16.6946 240.456 16.5838C241.632 16.4474 242.587 16.3366 243.32 16.2514C244.053 16.1577 244.586 16.0085 244.918 15.804C245.25 15.5994 245.417 15.267 245.417 14.8068V14.7173C245.417 13.6009 245.101 12.7358 244.471 12.1222C243.848 11.5085 242.919 11.2017 241.684 11.2017C240.397 11.2017 239.382 11.4872 238.641 12.0582C237.908 12.6207 237.401 13.2472 237.12 13.9375L233.527 13.1193C233.953 11.9261 234.576 10.9631 235.394 10.2301C236.221 9.48864 237.171 8.9517 238.245 8.61932C239.319 8.27841 240.448 8.10795 241.632 8.10795C242.417 8.10795 243.248 8.2017 244.125 8.3892C245.012 8.56818 245.838 8.90057 246.605 9.38636C247.381 9.87216 248.016 10.5668 248.51 11.4702C249.005 12.3651 249.252 13.5284 249.252 14.9602V28H245.519V25.3153H245.365C245.118 25.8097 244.748 26.2955 244.253 26.7727C243.759 27.25 243.124 27.6463 242.348 27.9616C241.573 28.277 240.644 28.4347 239.561 28.4347ZM240.392 25.3665C241.449 25.3665 242.353 25.1577 243.103 24.7401C243.861 24.3224 244.436 23.777 244.828 23.1037C245.229 22.4219 245.429 21.6932 245.429 20.9176V18.3864C245.293 18.5227 245.029 18.6506 244.637 18.7699C244.253 18.8807 243.814 18.9787 243.32 19.0639C242.826 19.1406 242.344 19.2131 241.875 19.2812C241.407 19.3409 241.015 19.392 240.699 19.4347C239.958 19.5284 239.28 19.6861 238.667 19.9077C238.061 20.1293 237.576 20.4489 237.209 20.8665C236.851 21.2756 236.672 21.821 236.672 22.5028C236.672 23.4489 237.022 24.1648 237.721 24.6506C238.419 25.1278 239.31 25.3665 240.392 25.3665ZM258.165 1.81818V28H254.343V1.81818H258.165ZM265.724 35.3636C265.153 35.3636 264.633 35.3168 264.164 35.223C263.696 35.1378 263.346 35.044 263.116 34.9418L264.037 31.8097C264.735 31.9972 265.358 32.0781 265.903 32.0526C266.449 32.027 266.93 31.8224 267.348 31.4389C267.774 31.0554 268.149 30.429 268.473 29.5597L268.946 28.2557L261.761 8.36364H265.852L270.825 23.6023H271.029L276.002 8.36364H280.106L272.014 30.6207C271.639 31.6435 271.162 32.5085 270.582 33.2159C270.002 33.9318 269.312 34.4688 268.511 34.8267C267.71 35.1847 266.781 35.3636 265.724 35.3636ZM298.413 13.1577L294.949 13.7713C294.804 13.3281 294.574 12.9062 294.258 12.5057C293.951 12.1051 293.534 11.777 293.005 11.5213C292.477 11.2656 291.816 11.1378 291.024 11.1378C289.941 11.1378 289.038 11.3807 288.314 11.8665C287.589 12.3437 287.227 12.9616 287.227 13.7202C287.227 14.3764 287.47 14.9048 287.956 15.3054C288.441 15.706 289.225 16.0341 290.308 16.2898L293.427 17.0057C295.234 17.4233 296.581 18.0668 297.467 18.9361C298.353 19.8054 298.797 20.9347 298.797 22.3239C298.797 23.5 298.456 24.5483 297.774 25.4688C297.1 26.3807 296.159 27.0966 294.949 27.6165C293.747 28.1364 292.353 28.3963 290.768 28.3963C288.569 28.3963 286.775 27.9276 285.386 26.9901C283.997 26.044 283.145 24.7017 282.829 22.9631L286.524 22.4006C286.754 23.3636 287.227 24.0923 287.943 24.5866C288.659 25.0724 289.592 25.3153 290.743 25.3153C291.995 25.3153 292.997 25.0554 293.747 24.5355C294.497 24.0071 294.872 23.3636 294.872 22.6051C294.872 21.9915 294.642 21.4759 294.181 21.0582C293.73 20.6406 293.035 20.3253 292.098 20.1122L288.774 19.3835C286.941 18.9659 285.586 18.3011 284.708 17.3892C283.839 16.4773 283.404 15.3224 283.404 13.9247C283.404 12.7656 283.728 11.7514 284.376 10.8821C285.024 10.0128 285.919 9.33523 287.061 8.84943C288.203 8.35511 289.511 8.10795 290.985 8.10795C293.108 8.10795 294.778 8.56818 295.997 9.48864C297.216 10.4006 298.021 11.6236 298.413 13.1577ZM302.999 28V8.36364H306.822V28H302.999ZM304.93 5.33381C304.265 5.33381 303.694 5.11221 303.217 4.66903C302.748 4.21733 302.513 3.6804 302.513 3.05824C302.513 2.42756 302.748 1.89062 303.217 1.44744C303.694 0.995738 304.265 0.769886 304.93 0.769886C305.594 0.769886 306.161 0.995738 306.63 1.44744C307.107 1.89062 307.346 2.42756 307.346 3.05824C307.346 3.6804 307.107 4.21733 306.63 4.66903C306.161 5.11221 305.594 5.33381 304.93 5.33381ZM326.679 13.1577L323.214 13.7713C323.069 13.3281 322.839 12.9062 322.524 12.5057C322.217 12.1051 321.799 11.777 321.271 11.5213C320.743 11.2656 320.082 11.1378 319.289 11.1378C318.207 11.1378 317.304 11.3807 316.579 11.8665C315.855 12.3437 315.493 12.9616 315.493 13.7202C315.493 14.3764 315.735 14.9048 316.221 15.3054C316.707 15.706 317.491 16.0341 318.574 16.2898L321.693 17.0057C323.5 17.4233 324.846 18.0668 325.733 18.9361C326.619 19.8054 327.062 20.9347 327.062 22.3239C327.062 23.5 326.721 24.5483 326.039 25.4688C325.366 26.3807 324.424 27.0966 323.214 27.6165C322.012 28.1364 320.619 28.3963 319.034 28.3963C316.835 28.3963 315.041 27.9276 313.652 26.9901C312.262 26.044 311.41 24.7017 311.095 22.9631L314.789 22.4006C315.02 23.3636 315.493 24.0923 316.208 24.5866C316.924 25.0724 317.858 25.3153 319.008 25.3153C320.261 25.3153 321.262 25.0554 322.012 24.5355C322.762 24.0071 323.137 23.3636 323.137 22.6051C323.137 21.9915 322.907 21.4759 322.447 21.0582C321.995 20.6406 321.301 20.3253 320.363 20.1122L317.039 19.3835C315.207 18.9659 313.852 18.3011 312.974 17.3892C312.105 16.4773 311.67 15.3224 311.67 13.9247C311.67 12.7656 311.994 11.7514 312.642 10.8821C313.289 10.0128 314.184 9.33523 315.326 8.84943C316.468 8.35511 317.777 8.10795 319.251 8.10795C321.373 8.10795 323.044 8.56818 324.262 9.48864C325.481 10.4006 326.287 11.6236 326.679 13.1577Z" fill="white"/>
</svg>
