<svg width="42" height="42" viewBox="0 0 42 42" fill="none" xmlns="http://www.w3.org/2000/svg">
<path d="M35 7H7C5.075 7 3.5175 8.575 3.5175 10.5L3.5 31.5C3.5 33.425 5.075 35 7 35H35C36.925 35 38.5 33.425 38.5 31.5V10.5C38.5 8.575 36.925 7 35 7ZM34.3 14.4375L21.9275 22.1725C21.3675 22.5225 20.6325 22.5225 20.0725 22.1725L7.7 14.4375C7.52452 14.339 7.37086 14.2059 7.24831 14.0463C7.12575 13.8867 7.03686 13.7039 6.98701 13.5089C6.93715 13.3139 6.92738 13.1109 6.95827 12.912C6.98917 12.7132 7.06009 12.5227 7.16674 12.352C7.2734 12.1814 7.41357 12.0341 7.57877 11.9192C7.74397 11.8043 7.93077 11.7241 8.12787 11.6835C8.32496 11.6429 8.52825 11.6427 8.72542 11.6829C8.9226 11.7231 9.10956 11.8029 9.275 11.9175L21 19.25L32.725 11.9175C32.8904 11.8029 33.0774 11.7231 33.2746 11.6829C33.4718 11.6427 33.675 11.6429 33.8721 11.6835C34.0692 11.7241 34.256 11.8043 34.4212 11.9192C34.5864 12.0341 34.7266 12.1814 34.8333 12.352C34.9399 12.5227 35.0108 12.7132 35.0417 12.912C35.0726 13.1109 35.0628 13.3139 35.013 13.5089C34.9631 13.7039 34.8742 13.8867 34.7517 14.0463C34.6291 14.2059 34.4755 14.339 34.3 14.4375Z" fill="black"/>
</svg>
