<svg width="42" height="42" viewBox="0 0 42 42" fill="none" xmlns="http://www.w3.org/2000/svg">
<path opacity="0.6" d="M20.4172 3.5H14.5828C13.0356 3.5 11.5518 4.11461 10.4578 5.20863C9.36374 6.30265 8.74912 7.78645 8.74912 9.33362C8.74912 10.8808 9.36374 12.3646 10.4578 13.4586C11.5518 14.5526 13.0356 15.1672 14.5828 15.1672H20.4172V3.5Z" fill="black"/>
<path opacity="0.4" d="M20.4172 15.1655H14.5828C13.0356 15.1655 11.5518 15.7801 10.4578 16.8742C9.36374 17.9682 8.74912 19.452 8.74912 20.9992C8.74912 22.5463 9.36374 24.0301 10.4578 25.1241C11.5518 26.2182 13.0356 26.8328 14.5828 26.8328H20.4172V15.1655Z" fill="black"/>
<path d="M32.0828 21C32.0828 22.5472 31.4681 24.031 30.3741 25.125C29.2801 26.219 27.7963 26.8336 26.2491 26.8336C24.702 26.8336 23.2181 26.219 22.1241 25.125C21.0301 24.031 20.4155 22.5472 20.4155 21C20.4155 19.4528 21.0301 17.969 22.1241 16.875C23.2181 15.781 24.702 15.1664 26.2491 15.1664C27.7963 15.1664 29.2801 15.781 30.3741 16.875C31.4681 17.969 32.0828 19.4528 32.0828 21Z" fill="black"/>
<path opacity="0.2" d="M14.5827 26.8345H20.4172V32.6673C20.4169 33.8207 20.0746 34.9482 19.4335 35.9071C18.7925 36.866 17.8815 37.6134 16.8158 38.0546C15.7501 38.4959 14.5774 38.6112 13.4462 38.3861C12.3149 38.161 11.2757 37.6055 10.4601 36.7899C9.6445 35.9743 9.08902 34.9351 8.86391 33.8039C8.6388 32.6726 8.75416 31.4999 9.19541 30.4342C9.63666 29.3685 10.384 28.4575 11.3429 27.8165C12.3018 27.1754 13.4293 26.8349 14.5827 26.8345Z" fill="black"/>
<path opacity="0.8" d="M20.4155 3.5H26.2482C27.7954 3.5 29.2792 4.11461 30.3732 5.20863C31.4673 6.30265 32.0819 7.78645 32.0819 9.33362C32.0819 10.8808 31.4673 12.3646 30.3732 13.4586C29.2792 14.5526 27.7954 15.1672 26.2482 15.1672H20.4155V3.5Z" fill="black"/>
</svg>
